<?xml version="1.0" encoding="UTF-8" standalone="no"?>
<!-- Created with Inkscape (http://www.inkscape.org/) -->

<svg
   xmlns:dc="http://purl.org/dc/elements/1.1/"
   xmlns:cc="http://creativecommons.org/ns#"
   xmlns:rdf="http://www.w3.org/1999/02/22-rdf-syntax-ns#"
   xmlns:svg="http://www.w3.org/2000/svg"
   xmlns="http://www.w3.org/2000/svg"
   xmlns:sodipodi="http://sodipodi.sourceforge.net/DTD/sodipodi-0.dtd"
   xmlns:inkscape="http://www.inkscape.org/namespaces/inkscape"
   width="45.155556mm"
   height="45.155556mm"
   viewBox="0 0 159.99999 159.99999"
   id="svg2"
   version="1.1"
   inkscape:version="0.91 r13725"
   sodipodi:docname="android.svg"
   inkscape:export-filename="C:\Users\stkotok\monitor.png"
   inkscape:export-xdpi="90"
   inkscape:export-ydpi="90">
  <defs
     id="defs4" />
  <sodipodi:namedview
     id="base"
     pagecolor="#ffffff"
     bordercolor="#666666"
     borderopacity="1.0"
     inkscape:pageopacity="0.0"
     inkscape:pageshadow="2"
     inkscape:zoom="3.959798"
     inkscape:cx="51.641862"
     inkscape:cy="80.790742"
     inkscape:document-units="px"
     inkscape:current-layer="layer1"
     showgrid="false"
     fit-margin-top="0"
     fit-margin-left="0"
     fit-margin-right="0"
     fit-margin-bottom="0"
     inkscape:window-width="1920"
     inkscape:window-height="1057"
     inkscape:window-x="-8"
     inkscape:window-y="-8"
     inkscape:window-maximized="1"
     showguides="false" />
  <metadata
     id="metadata7">
    <rdf:RDF>
      <cc:Work
         rdf:about="">
        <dc:format>image/svg+xml</dc:format>
        <dc:type
           rdf:resource="http://purl.org/dc/dcmitype/StillImage" />
        <dc:title></dc:title>
      </cc:Work>
    </rdf:RDF>
  </metadata>
  <g
     inkscape:label="Layer 1"
     inkscape:groupmode="layer"
     id="layer1"
     transform="translate(-121.38407,-636.69248)">
    <g
       id="g4197"
       transform="matrix(0.37078439,0,0,0.37078439,76.376752,501.29135)"
       style="stroke-width:1.99776626;stroke-miterlimit:4;stroke-dasharray:none">
      <g
         transform="translate(-2.3435372,-1.1714507)"
         id="g4187"
         style="stroke-width:1.99776626;stroke-miterlimit:4;stroke-dasharray:none">
        <path
           style="fill:#000000;fill-opacity:0;fill-rule:evenodd;stroke:#969696;stroke-width:1.99776626;stroke-linecap:butt;stroke-linejoin:miter;stroke-miterlimit:4;stroke-dasharray:none;stroke-opacity:1"
           d="m 123.7276,399.32562 431.51758,0 -431.51758,0 z"
           id="path4147"
           inkscape:connector-curvature="0" />
        <path
           style="fill:#000000;fill-opacity:0;fill-rule:evenodd;stroke:#969696;stroke-width:1.99776626;stroke-linecap:butt;stroke-linejoin:miter;stroke-miterlimit:4;stroke-dasharray:none;stroke-opacity:1"
           d="m 123.72761,764.88453 431.51757,0 -431.51758,0 z"
           id="path4147-3"
           inkscape:connector-curvature="0" />
      </g>
      <g
         transform="translate(3.4214278,-3.4357257)"
         id="g4183"
         style="stroke-width:1.99776626;stroke-miterlimit:4;stroke-dasharray:none">
        <path
           style="fill:#000000;fill-opacity:0;fill-rule:evenodd;stroke:#969696;stroke-width:1.99776626;stroke-linecap:butt;stroke-linejoin:miter;stroke-miterlimit:4;stroke-dasharray:none;stroke-opacity:1"
           d="m 516.50088,368.61056 0,431.51758 0,-431.51758 z"
           id="path4147-0"
           inkscape:connector-curvature="0" />
        <path
           style="fill:#000000;fill-opacity:0;fill-rule:evenodd;stroke:#969696;stroke-width:1.99776626;stroke-linecap:butt;stroke-linejoin:miter;stroke-miterlimit:4;stroke-dasharray:none;stroke-opacity:1"
           d="m 150.94197,368.61057 0,431.51757 0,-431.51758 z"
           id="path4147-3-2"
           inkscape:connector-curvature="0" />
      </g>
    </g>
    <path
       inkscape:connector-curvature="0"
       d="m 206.63351,704.44594 -1.74982,0 0,-1.74982 1.74982,0 m -8.74909,1.74982 -1.74982,0 0,-1.74982 1.74982,0 m 9.67649,-3.21966 2.29226,-2.29227 c 0.33247,-0.33246 0.33247,-0.8924 0,-1.24237 -0.34996,-0.33246 -0.9099,-0.33246 -1.24237,0 l -2.58973,2.58973 c -1.39985,-0.68242 -2.97469,-1.08488 -4.63701,-1.08488 -1.67983,0 -3.25467,0.40246 -4.65452,1.10238 l -2.60723,-2.60723 c -0.33246,-0.33246 -0.8924,-0.33246 -1.22487,0 -0.34996,0.34997 -0.34996,0.90991 0,1.24237 l 2.29226,2.29227 c -2.60723,1.9248 -4.30455,4.96948 -4.30455,8.46911 l 20.99781,0 c 0,-3.49963 -1.74982,-6.56181 -4.32205,-8.46911 m 8.69659,10.21893 a 2.6247259,2.6247259 0 0 0 -2.62472,2.62473 l 0,12.24872 a 2.6247259,2.6247259 0 0 0 2.62472,2.62473 2.6247259,2.6247259 0 0 0 2.62473,-2.62473 l 0,-12.24872 a 2.6247259,2.6247259 0 0 0 -2.62473,-2.62473 m -29.74689,0 a 2.6247259,2.6247259 0 0 0 -2.62473,2.62473 l 0,12.24872 a 2.6247259,2.6247259 0 0 0 2.62473,2.62473 2.6247259,2.6247259 0 0 0 2.62472,-2.62473 l 0,-12.24872 a 2.6247259,2.6247259 0 0 0 -2.62472,-2.62473 m 4.37454,17.49818 a 1.7498173,1.7498173 0 0 0 1.74982,1.74981 l 1.74982,0 0,6.12436 a 2.6247259,2.6247259 0 0 0 2.62472,2.62473 2.6247259,2.6247259 0 0 0 2.62473,-2.62473 l 0,-6.12436 3.49963,0 0,6.12436 a 2.6247259,2.6247259 0 0 0 2.62473,2.62473 2.6247259,2.6247259 0 0 0 2.62473,-2.62473 l 0,-6.12436 1.74981,0 a 1.7498173,1.7498173 0 0 0 1.74982,-1.74981 l 0,-17.49818 -20.99781,0 0,17.49818 z"
       id="path4-2"
       style="fill:#969696;fill-opacity:1" />
  </g>
</svg>
