<?xml version="1.0" encoding="UTF-8" standalone="no"?>
<!-- Created with Inkscape (http://www.inkscape.org/) -->

<svg
   xmlns:dc="http://purl.org/dc/elements/1.1/"
   xmlns:cc="http://creativecommons.org/ns#"
   xmlns:rdf="http://www.w3.org/1999/02/22-rdf-syntax-ns#"
   xmlns:svg="http://www.w3.org/2000/svg"
   xmlns="http://www.w3.org/2000/svg"
   xmlns:sodipodi="http://sodipodi.sourceforge.net/DTD/sodipodi-0.dtd"
   xmlns:inkscape="http://www.inkscape.org/namespaces/inkscape"
   width="45.155556mm"
   height="45.155556mm"
   viewBox="0 0 159.99999 159.99999"
   id="svg2"
   version="1.1"
   inkscape:version="0.91 r13725"
   sodipodi:docname="ios.svg"
   inkscape:export-filename="C:\Users\stkotok\ios.png"
   inkscape:export-xdpi="90"
   inkscape:export-ydpi="90">
  <defs
     id="defs4" />
  <sodipodi:namedview
     id="base"
     pagecolor="#ffffff"
     bordercolor="#666666"
     borderopacity="1.0"
     inkscape:pageopacity="0.0"
     inkscape:pageshadow="2"
     inkscape:zoom="3.959798"
     inkscape:cx="51.641862"
     inkscape:cy="79.661224"
     inkscape:document-units="px"
     inkscape:current-layer="layer1"
     showgrid="false"
     fit-margin-top="0"
     fit-margin-left="0"
     fit-margin-right="0"
     fit-margin-bottom="0"
     inkscape:window-width="1920"
     inkscape:window-height="1057"
     inkscape:window-x="-8"
     inkscape:window-y="-8"
     inkscape:window-maximized="1"
     showguides="false" />
  <metadata
     id="metadata7">
    <rdf:RDF>
      <cc:Work
         rdf:about="">
        <dc:format>image/svg+xml</dc:format>
        <dc:type
           rdf:resource="http://purl.org/dc/dcmitype/StillImage" />
        <dc:title></dc:title>
      </cc:Work>
    </rdf:RDF>
  </metadata>
  <g
     inkscape:label="Layer 1"
     inkscape:groupmode="layer"
     id="layer1"
     transform="translate(-121.38407,-636.69248)">
    <g
       id="g4197"
       transform="matrix(0.37078439,0,0,0.37078439,76.376752,501.29135)"
       style="stroke-width:1.99776626;stroke-miterlimit:4;stroke-dasharray:none">
      <g
         transform="translate(-2.3435372,-1.1714507)"
         id="g4187"
         style="stroke-width:1.99776626;stroke-miterlimit:4;stroke-dasharray:none">
        <path
           style="fill:#000000;fill-opacity:0;fill-rule:evenodd;stroke:#969696;stroke-width:1.99776626;stroke-linecap:butt;stroke-linejoin:miter;stroke-miterlimit:4;stroke-dasharray:none;stroke-opacity:1"
           d="m 123.7276,399.32562 431.51758,0 -431.51758,0 z"
           id="path4147"
           inkscape:connector-curvature="0" />
        <path
           style="fill:#000000;fill-opacity:0;fill-rule:evenodd;stroke:#969696;stroke-width:1.99776626;stroke-linecap:butt;stroke-linejoin:miter;stroke-miterlimit:4;stroke-dasharray:none;stroke-opacity:1"
           d="m 123.72761,764.88453 431.51757,0 -431.51758,0 z"
           id="path4147-3"
           inkscape:connector-curvature="0" />
      </g>
      <g
         transform="translate(3.4214278,-3.4357257)"
         id="g4183"
         style="stroke-width:1.99776626;stroke-miterlimit:4;stroke-dasharray:none">
        <path
           style="fill:#000000;fill-opacity:0;fill-rule:evenodd;stroke:#969696;stroke-width:1.99776626;stroke-linecap:butt;stroke-linejoin:miter;stroke-miterlimit:4;stroke-dasharray:none;stroke-opacity:1"
           d="m 516.50088,368.61056 0,431.51758 0,-431.51758 z"
           id="path4147-0"
           inkscape:connector-curvature="0" />
        <path
           style="fill:#000000;fill-opacity:0;fill-rule:evenodd;stroke:#969696;stroke-width:1.99776626;stroke-linecap:butt;stroke-linejoin:miter;stroke-miterlimit:4;stroke-dasharray:none;stroke-opacity:1"
           d="m 150.94197,368.61057 0,431.51757 0,-431.51758 z"
           id="path4147-3-2"
           inkscape:connector-curvature="0" />
      </g>
    </g>
    <path
       inkscape:connector-curvature="0"
       d="m 215.52198,732.44003 c -1.74288,2.60382 -3.59076,5.14466 -6.40457,5.18665 -2.81381,0.063 -3.71675,-1.65889 -6.90854,-1.65889 -3.21279,0 -4.19972,1.6169 -6.86654,1.72189 -2.75082,0.10499 -4.82968,-2.77182 -6.59356,-5.31265 -3.59076,-5.18665 -6.34158,-14.74102 -2.64583,-21.16659 1.82688,-3.19179 5.10266,-5.20765 8.65143,-5.27065 2.68782,-0.042 5.24965,1.82688 6.90854,1.82688 1.63789,0 4.74568,-2.24685 8.00046,-1.91087 1.36491,0.063 5.18666,0.54596 7.64349,4.15772 -0.18898,0.12599 -4.55669,2.68782 -4.51469,8.00047 0.063,6.34158 5.56462,8.46244 5.62762,8.48343 -0.063,0.14699 -0.88194,3.0238 -2.89781,5.94261 m -11.9902,-33.59776 c 1.5329,-1.74289 4.07373,-3.0658 6.17359,-3.1498 0.27298,2.45684 -0.71395,4.93468 -2.18385,6.69856 -1.44891,1.78488 -3.84275,3.17079 -6.19459,2.9818 -0.31498,-2.41484 0.86094,-4.93467 2.20485,-6.53056 z"
       id="path4-2"
       style="fill:#969696;fill-opacity:1" />
  </g>
</svg>
