<?xml version="1.0" encoding="UTF-8" standalone="no"?>
<!-- Created with Inkscape (http://www.inkscape.org/) -->

<svg
   xmlns:dc="http://purl.org/dc/elements/1.1/"
   xmlns:cc="http://creativecommons.org/ns#"
   xmlns:rdf="http://www.w3.org/1999/02/22-rdf-syntax-ns#"
   xmlns:svg="http://www.w3.org/2000/svg"
   xmlns="http://www.w3.org/2000/svg"
   xmlns:sodipodi="http://sodipodi.sourceforge.net/DTD/sodipodi-0.dtd"
   xmlns:inkscape="http://www.inkscape.org/namespaces/inkscape"
   width="282.55032mm"
   height="98.589172mm"
   viewBox="0 0 1001.1625 349.33172"
   id="svg2"
   version="1.1"
   inkscape:version="0.91 r13725"
   sodipodi:docname="logo.svg"
   inkscape:export-filename="C:\IdeaProjects\site_timber\images\logo.png"
   inkscape:export-xdpi="90"
   inkscape:export-ydpi="90">
  <defs
     id="defs4" />
  <sodipodi:namedview
     id="base"
     pagecolor="#ffffff"
     bordercolor="#666666"
     borderopacity="1.0"
     inkscape:pageopacity="0.0"
     inkscape:pageshadow="2"
     inkscape:zoom="1"
     inkscape:cx="442.63191"
     inkscape:cy="72.635718"
     inkscape:document-units="px"
     inkscape:current-layer="layer1"
     showgrid="false"
     fit-margin-top="0"
     fit-margin-left="0"
     fit-margin-right="0"
     fit-margin-bottom="0"
     inkscape:window-width="1920"
     inkscape:window-height="1017"
     inkscape:window-x="-8"
     inkscape:window-y="-8"
     inkscape:window-maximized="1" />
  <metadata
     id="metadata7">
    <rdf:RDF>
      <cc:Work
         rdf:about="">
        <dc:format>image/svg+xml</dc:format>
        <dc:type
           rdf:resource="http://purl.org/dc/dcmitype/StillImage" />
        <dc:title></dc:title>
      </cc:Work>
    </rdf:RDF>
  </metadata>
  <g
     inkscape:label="Layer 1"
     inkscape:groupmode="layer"
     id="layer1"
     transform="translate(243.13879,116.80095)">
    <g
       id="g4193"
       transform="matrix(4.7576553,0,0,4.7576553,-542.57336,-381.63126)">
      <path
         d="m 88.58989,106.35435 -6.63147,0 -12.130737,-31.863406 q 0.485229,2.329101 0.485229,3.655395 l 0,28.208011 -7.375488,0 0,-50.625613 6.63147,0 12.130737,31.216431 q -0.48523,-2.329102 -0.48523,-3.655396 l 0,-27.561035 7.375489,0 0,50.625613 z"
         style="font-style:normal;font-variant:normal;font-weight:bold;font-stretch:condensed;font-size:medium;line-height:125%;font-family:'Agency FB';-inkscape-font-specification:'Agency FB Bold Condensed';letter-spacing:0px;word-spacing:0px;fill:#1fcdff;fill-opacity:1;stroke:none;stroke-width:1px;stroke-linecap:butt;stroke-linejoin:miter;stroke-opacity:1"
         id="path3341"
         inkscape:connector-curvature="0" />
      <path
         d="m 113.76275,106.35435 -20.994271,0 0,-50.625613 20.800171,0 0,6.696167 -13.23059,0 0,14.783325 11.38672,0 0,6.566773 -11.38672,0 0,15.883178 13.42469,0 0,6.69617 z"
         id="path3343"
         inkscape:connector-curvature="0"
         style="font-style:normal;font-variant:normal;font-weight:bold;font-stretch:condensed;font-size:medium;line-height:125%;font-family:'Agency FB';-inkscape-font-specification:'Agency FB Bold Condensed';letter-spacing:0px;word-spacing:0px;fill:#1fcdff;fill-opacity:1;stroke:none;stroke-width:1px;stroke-linecap:butt;stroke-linejoin:miter;stroke-opacity:1" />
      <path
         d="m 142.81743,106.35435 -7.50488,0 -1.52039,-9.607547 -9.47815,0 -1.52038,9.607547 -7.47254,0 0,-0.1294 9.80164,-50.56091 7.95776,0 9.73694,50.69031 z m -10.09277,-16.109622 -3.68774,-22.838135 -3.7201,22.838135 7.40784,0 z"
         style="font-style:normal;font-variant:normal;font-weight:bold;font-stretch:condensed;font-size:medium;line-height:125%;font-family:'Agency FB';-inkscape-font-specification:'Agency FB Bold Condensed';letter-spacing:0px;word-spacing:0px;fill:#1fcdff;fill-opacity:1;stroke:none;stroke-width:1px;stroke-linecap:butt;stroke-linejoin:miter;stroke-opacity:1"
         id="path3345"
         inkscape:connector-curvature="0" />
      <path
         d="m 163.05217,62.424904 -8.34594,0 0,43.929446 -7.53723,0 0,-43.929446 -8.34595,0 0,-6.696167 24.22912,0 0,6.696167 z"
         style="font-style:normal;font-variant:normal;font-weight:bold;font-stretch:condensed;font-size:medium;line-height:125%;font-family:'Agency FB';-inkscape-font-specification:'Agency FB Bold Condensed';letter-spacing:0px;word-spacing:0px;fill:#1fcdff;fill-opacity:1;stroke:none;stroke-width:1px;stroke-linecap:butt;stroke-linejoin:miter;stroke-opacity:1"
         id="path3347"
         inkscape:connector-curvature="0" />
    </g>
    <g
       id="g4187"
       style="fill:#000000;fill-opacity:1"
       transform="matrix(4.7576553,0,0,4.7576553,-541.41,-381.63126)">
      <path
         d="m 190.58648,106.35435 -7.50489,0 -1.52038,-9.607547 -9.47815,0 -1.52039,9.607547 -7.47253,0 0,-0.1294 9.80163,-50.56091 7.95777,0 9.73694,50.69031 z m -10.09278,-16.109622 -3.68774,-22.838135 -3.72009,22.838135 7.40783,0 z"
         style="font-style:normal;font-variant:normal;font-weight:bold;font-stretch:condensed;font-size:medium;line-height:125%;font-family:'Agency FB';-inkscape-font-specification:'Agency FB Bold Condensed';letter-spacing:0px;word-spacing:0px;fill:#000000;fill-opacity:1;stroke:none;stroke-width:1px;stroke-linecap:butt;stroke-linejoin:miter;stroke-opacity:1"
         id="path3349"
         inkscape:connector-curvature="0" />
      <path
         d="m 217.27971,83.289772 q 0,4.7229 -4.62585,4.7229 l -12.26013,0 0,18.341678 -7.56958,0 0,-50.625613 19.82971,0 q 4.62585,0 4.62585,4.658203 l 0,22.902832 z m -7.63427,-1.779175 0,-19.279785 -9.25171,0 0,19.279785 9.25171,0 z"
         style="font-style:normal;font-variant:normal;font-weight:bold;font-stretch:condensed;font-size:medium;line-height:125%;font-family:'Agency FB';-inkscape-font-specification:'Agency FB Bold Condensed';letter-spacing:0px;word-spacing:0px;fill:#000000;fill-opacity:1;stroke:none;stroke-width:1px;stroke-linecap:butt;stroke-linejoin:miter;stroke-opacity:1"
         id="path3351"
         inkscape:connector-curvature="0" />
      <path
         d="m 245.29924,83.289772 q 0,4.7229 -4.62585,4.7229 l -12.26013,0 0,18.341678 -7.56958,0 0,-50.625613 19.82971,0 q 4.62585,0 4.62585,4.658203 l 0,22.902832 z m -7.63427,-1.779175 0,-19.279785 -9.25171,0 0,19.279785 9.25171,0 z"
         style="font-style:normal;font-variant:normal;font-weight:bold;font-stretch:condensed;font-size:medium;line-height:125%;font-family:'Agency FB';-inkscape-font-specification:'Agency FB Bold Condensed';letter-spacing:0px;word-spacing:0px;fill:#000000;fill-opacity:1;stroke:none;stroke-width:1px;stroke-linecap:butt;stroke-linejoin:miter;stroke-opacity:1"
         id="path3353"
         inkscape:connector-curvature="0" />
      <path
         d="m 273.12468,101.72849 q 0,4.62586 -4.5935,4.62586 l -15.23621,0 q -4.56116,0 -4.56116,-4.62586 l 0,-12.066037 7.56958,0 0,10.319214 9.25171,0 0,-9.931031 -15.17151,-14.362793 q -1.64978,-1.585083 -1.64978,-4.043579 l 0,-11.257324 q 0,-4.658203 4.56116,-4.658203 l 15.23621,0 q 4.5935,0 4.5935,4.593506 l 0,11.322021 -7.56958,0 0,-9.542846 -9.25171,0 0,9.154663 15.17151,14.298095 q 1.64978,1.552735 1.64978,4.108277 l 0,12.066037 z"
         style="font-style:normal;font-variant:normal;font-weight:bold;font-stretch:condensed;font-size:medium;line-height:125%;font-family:'Agency FB';-inkscape-font-specification:'Agency FB Bold Condensed';letter-spacing:0px;word-spacing:0px;fill:#000000;fill-opacity:1;stroke:none;stroke-width:1px;stroke-linecap:butt;stroke-linejoin:miter;stroke-opacity:1"
         id="path3355"
         inkscape:connector-curvature="0" />
    </g>
    <text
       xml:space="preserve"
       style="font-style:normal;font-variant:normal;font-weight:bold;font-stretch:condensed;font-size:128.67320251px;line-height:125%;font-family:'Agency FB';-inkscape-font-specification:'Agency FB Bold Condensed';text-align:end;letter-spacing:0px;word-spacing:0px;text-anchor:end;fill:#000000;fill-opacity:1;stroke:none;stroke-width:1px;stroke-linecap:butt;stroke-linejoin:miter;stroke-opacity:1"
       x="759.49329"
       y="233.77719"
       id="text4145"
       sodipodi:linespacing="125%"><tspan
         sodipodi:role="line"
         id="tspan4147"
         x="759.49329"
         y="233.77719"
         style="font-size:115.80589294px;text-align:end;text-anchor:end">DEVELOPMENT</tspan></text>
    <text
       sodipodi:linespacing="125%"
       id="text4159"
       y="233.77719"
       x="-248.22792"
       style="font-style:normal;font-variant:normal;font-weight:bold;font-stretch:condensed;font-size:128.67320251px;line-height:125%;font-family:'Agency FB';-inkscape-font-specification:'Agency FB Bold Condensed';letter-spacing:0px;word-spacing:0px;fill:#000000;fill-opacity:1;stroke:none;stroke-width:1px;stroke-linecap:butt;stroke-linejoin:miter;stroke-opacity:1"
       xml:space="preserve"><tspan
         style="font-size:115.80589294px"
         y="233.77719"
         x="-248.22792"
         id="tspan4161"
         sodipodi:role="line">SOFTWARE</tspan></text>
  </g>
</svg>
