<?xml version="1.0" encoding="UTF-8" standalone="no"?>
<!-- Created with Inkscape (http://www.inkscape.org/) -->

<svg
   xmlns:dc="http://purl.org/dc/elements/1.1/"
   xmlns:cc="http://creativecommons.org/ns#"
   xmlns:rdf="http://www.w3.org/1999/02/22-rdf-syntax-ns#"
   xmlns:svg="http://www.w3.org/2000/svg"
   xmlns="http://www.w3.org/2000/svg"
   xmlns:sodipodi="http://sodipodi.sourceforge.net/DTD/sodipodi-0.dtd"
   xmlns:inkscape="http://www.inkscape.org/namespaces/inkscape"
   width="282.22223mm"
   height="100.61983mm"
   viewBox="0 0 1000 356.52695"
   id="svg2"
   version="1.1"
   inkscape:version="0.91 r13725"
   sodipodi:docname="logo_colored.svg"
   inkscape:export-filename="C:\IdeaProjects\site_timber\images\logo.png"
   inkscape:export-xdpi="12.33"
   inkscape:export-ydpi="12.33">
  <defs
     id="defs4" />
  <sodipodi:namedview
     id="base"
     pagecolor="#ffffff"
     bordercolor="#666666"
     borderopacity="1.0"
     inkscape:pageopacity="0.0"
     inkscape:pageshadow="2"
     inkscape:zoom="0.7"
     inkscape:cx="570.44901"
     inkscape:cy="117.37182"
     inkscape:document-units="px"
     inkscape:current-layer="layer1"
     showgrid="false"
     fit-margin-top="0"
     fit-margin-left="0"
     fit-margin-right="0"
     fit-margin-bottom="0"
     inkscape:window-width="1920"
     inkscape:window-height="1017"
     inkscape:window-x="-8"
     inkscape:window-y="-8"
     inkscape:window-maximized="1" />
  <metadata
     id="metadata7">
    <rdf:RDF>
      <cc:Work
         rdf:about="">
        <dc:format>image/svg+xml</dc:format>
        <dc:type
           rdf:resource="http://purl.org/dc/dcmitype/StillImage" />
        <dc:title></dc:title>
      </cc:Work>
    </rdf:RDF>
  </metadata>
  <g
     inkscape:label="Layer 1"
     inkscape:groupmode="layer"
     id="layer1"
     transform="translate(243.13879,116.80095)">
    <g
       id="g4193"
       transform="matrix(4.7576553,0,0,4.7576553,-542.57336,-381.63126)">
      <path
         d="m 88.58989,106.35435 -6.63147,0 -12.130737,-31.863406 q 0.485229,2.329101 0.485229,3.655395 l 0,28.208011 -7.375488,0 0,-50.625613 6.63147,0 12.130737,31.216431 q -0.48523,-2.329102 -0.48523,-3.655396 l 0,-27.561035 7.375489,0 0,50.625613 z"
         style="font-style:normal;font-variant:normal;font-weight:bold;font-stretch:condensed;font-size:medium;line-height:125%;font-family:'Agency FB';-inkscape-font-specification:'Agency FB Bold Condensed';letter-spacing:0px;word-spacing:0px;fill:#1fcdff;fill-opacity:1;stroke:none;stroke-width:1px;stroke-linecap:butt;stroke-linejoin:miter;stroke-opacity:1"
         id="path3341"
         inkscape:connector-curvature="0" />
      <path
         d="m 113.76275,106.35435 -20.994271,0 0,-50.625613 20.800171,0 0,6.696167 -13.23059,0 0,14.783325 11.38672,0 0,6.566773 -11.38672,0 0,15.883178 13.42469,0 0,6.69617 z"
         id="path3343"
         inkscape:connector-curvature="0"
         style="font-style:normal;font-variant:normal;font-weight:bold;font-stretch:condensed;font-size:medium;line-height:125%;font-family:'Agency FB';-inkscape-font-specification:'Agency FB Bold Condensed';letter-spacing:0px;word-spacing:0px;fill:#1fcdff;fill-opacity:1;stroke:none;stroke-width:1px;stroke-linecap:butt;stroke-linejoin:miter;stroke-opacity:1" />
      <path
         d="m 142.81743,106.35435 -7.50488,0 -1.52039,-9.607547 -9.47815,0 -1.52038,9.607547 -7.47254,0 0,-0.1294 9.80164,-50.56091 7.95776,0 9.73694,50.69031 z m -10.09277,-16.109622 -3.68774,-22.838135 -3.7201,22.838135 7.40784,0 z"
         style="font-style:normal;font-variant:normal;font-weight:bold;font-stretch:condensed;font-size:medium;line-height:125%;font-family:'Agency FB';-inkscape-font-specification:'Agency FB Bold Condensed';letter-spacing:0px;word-spacing:0px;fill:#1fcdff;fill-opacity:1;stroke:none;stroke-width:1px;stroke-linecap:butt;stroke-linejoin:miter;stroke-opacity:1"
         id="path3345"
         inkscape:connector-curvature="0" />
      <path
         d="m 163.05217,62.424904 -8.34594,0 0,43.929446 -7.53723,0 0,-43.929446 -8.34595,0 0,-6.696167 24.22912,0 0,6.696167 z"
         style="font-style:normal;font-variant:normal;font-weight:bold;font-stretch:condensed;font-size:medium;line-height:125%;font-family:'Agency FB';-inkscape-font-specification:'Agency FB Bold Condensed';letter-spacing:0px;word-spacing:0px;fill:#1fcdff;fill-opacity:1;stroke:none;stroke-width:1px;stroke-linecap:butt;stroke-linejoin:miter;stroke-opacity:1"
         id="path3347"
         inkscape:connector-curvature="0" />
    </g>
    <g
       id="g4187"
       style="fill:#ffffff;fill-opacity:1"
       transform="matrix(4.7576553,0,0,4.7576553,-542.57336,-381.63126)">
      <path
         d="m 190.58648,106.35435 -7.50489,0 -1.52038,-9.607547 -9.47815,0 -1.52039,9.607547 -7.47253,0 0,-0.1294 9.80163,-50.56091 7.95777,0 9.73694,50.69031 z m -10.09278,-16.109622 -3.68774,-22.838135 -3.72009,22.838135 7.40783,0 z"
         style="font-style:normal;font-variant:normal;font-weight:bold;font-stretch:condensed;font-size:medium;line-height:125%;font-family:'Agency FB';-inkscape-font-specification:'Agency FB Bold Condensed';letter-spacing:0px;word-spacing:0px;fill:#ffffff;fill-opacity:1;stroke:none;stroke-width:1px;stroke-linecap:butt;stroke-linejoin:miter;stroke-opacity:1"
         id="path3349"
         inkscape:connector-curvature="0" />
      <path
         d="m 217.27971,83.289772 q 0,4.7229 -4.62585,4.7229 l -12.26013,0 0,18.341678 -7.56958,0 0,-50.625613 19.82971,0 q 4.62585,0 4.62585,4.658203 l 0,22.902832 z m -7.63427,-1.779175 0,-19.279785 -9.25171,0 0,19.279785 9.25171,0 z"
         style="font-style:normal;font-variant:normal;font-weight:bold;font-stretch:condensed;font-size:medium;line-height:125%;font-family:'Agency FB';-inkscape-font-specification:'Agency FB Bold Condensed';letter-spacing:0px;word-spacing:0px;fill:#ffffff;fill-opacity:1;stroke:none;stroke-width:1px;stroke-linecap:butt;stroke-linejoin:miter;stroke-opacity:1"
         id="path3351"
         inkscape:connector-curvature="0" />
      <path
         d="m 245.29924,83.289772 q 0,4.7229 -4.62585,4.7229 l -12.26013,0 0,18.341678 -7.56958,0 0,-50.625613 19.82971,0 q 4.62585,0 4.62585,4.658203 l 0,22.902832 z m -7.63427,-1.779175 0,-19.279785 -9.25171,0 0,19.279785 9.25171,0 z"
         style="font-style:normal;font-variant:normal;font-weight:bold;font-stretch:condensed;font-size:medium;line-height:125%;font-family:'Agency FB';-inkscape-font-specification:'Agency FB Bold Condensed';letter-spacing:0px;word-spacing:0px;fill:#ffffff;fill-opacity:1;stroke:none;stroke-width:1px;stroke-linecap:butt;stroke-linejoin:miter;stroke-opacity:1"
         id="path3353"
         inkscape:connector-curvature="0" />
      <path
         d="m 273.12468,101.72849 q 0,4.62586 -4.5935,4.62586 l -15.23621,0 q -4.56116,0 -4.56116,-4.62586 l 0,-12.066037 7.56958,0 0,10.319214 9.25171,0 0,-9.931031 -15.17151,-14.362793 q -1.64978,-1.585083 -1.64978,-4.043579 l 0,-11.257324 q 0,-4.658203 4.56116,-4.658203 l 15.23621,0 q 4.5935,0 4.5935,4.593506 l 0,11.322021 -7.56958,0 0,-9.542846 -9.25171,0 0,9.154663 15.17151,14.298095 q 1.64978,1.552735 1.64978,4.108277 l 0,12.066037 z"
         style="font-style:normal;font-variant:normal;font-weight:bold;font-stretch:condensed;font-size:medium;line-height:125%;font-family:'Agency FB';-inkscape-font-specification:'Agency FB Bold Condensed';letter-spacing:0px;word-spacing:0px;fill:#ffffff;fill-opacity:1;stroke:none;stroke-width:1px;stroke-linecap:butt;stroke-linejoin:miter;stroke-opacity:1"
         id="path3355"
         inkscape:connector-curvature="0" />
    </g>
    <path
       style="font-style:normal;font-variant:normal;font-weight:bold;font-stretch:condensed;font-size:26.4375px;line-height:125%;font-family:'Agency FB';-inkscape-font-specification:'Agency FB Bold Condensed';letter-spacing:0px;word-spacing:0px;fill:#ffffff;fill-opacity:1;stroke:none;stroke-width:1px;stroke-linecap:butt;stroke-linejoin:miter;stroke-opacity:1"
       d="m 309.67578,260.16602 -18.60351,95.99804 0,0.24219 14.18945,0 2.88086,-18.24023 17.99804,0 2.88086,18.24023 14.25391,0 -18.49023,-96.24023 z M 8.921875,260.28711 c -5.77313,0 -8.66210938,2.94972 -8.66210938,8.8457 l 0,21.37305 c 0,3.11175 1.05247498,5.6676 3.14062498,7.67383 l 28.7968754,27.27343 0,18.85352 -17.5625,0 0,-19.58789 -14.37500038,0 0,22.90625 c 0,5.85501 2.88897938,8.78125 8.66210938,8.78125 l 28.925781,0 c 5.81408,0 8.726563,-2.92624 8.726563,-8.78125 l 0,-22.90625 c 0,-3.23457 -1.044653,-5.83937 -3.132813,-7.80469 l -28.80664,-27.14258 0,-17.37695 17.5625,0 0,18.11133 14.376953,0 0,-21.49414 c 0,-5.81403 -2.912483,-8.72461 -8.726563,-8.72461 z m 58.103516,0 c -5.69123,0 -8.539063,2.94972 -8.539063,8.8457 l 0,78.49219 c 0,5.85501 2.847833,8.78125 8.539063,8.78125 l 31.195312,0 c 5.814077,0 8.724607,-2.92624 8.724607,-8.78125 l 0,-78.49219 c 0,-5.89598 -2.91053,-8.8457 -8.724607,-8.8457 z m 51.898439,0 0,96.11914 14.36523,0 0,-42.50391 21.25196,0 0,-12.46093 -21.25196,0 0,-28.4336 24.875,0 0,-12.7207 z m 43.42187,0 0,12.7207 15.84375,0 0,83.39844 14.31055,0 0,-83.39844 15.84375,0 0,-12.7207 z m 49.86328,0 14.06836,96.24023 14.12305,0 8.54102,-54.47265 c 0.32732,-3.88964 0.49218,-6.81591 0.49218,-8.78125 0.2455,3.8897 0.41026,6.81597 0.49219,8.78125 l 8.5957,54.47265 14.0586,0 14.06836,-96.24023 -14.55078,0 -7.4336,56.99805 c -0.28689,3.88964 -0.45117,6.81589 -0.49218,8.78125 -0.2455,-3.88972 -0.4359,-6.81597 -0.5586,-8.78125 l -8.28906,-56.99805 -11.79102,0 -8.28906,56.99805 c -0.3278,3.88964 -0.51568,6.81589 -0.55664,8.78125 -0.20457,-3.88972 -0.36134,-6.81597 -0.48438,-8.78125 l -7.43359,-56.99805 z m 139.11524,0 0,96.11914 14.36523,0 0,-83.76953 18.11914,0 0,30.45898 -14.12304,0 0,8.66016 15.84375,44.65039 14.98828,0 -15.84375,-43.54297 c 4.74952,0 7.85609,-0.30589 9.33008,-0.91992 2.74326,-1.18735 4.11523,-3.80786 4.11523,-7.86133 l 0,-34.94922 c 0,-5.89598 -2.88708,-8.8457 -8.66016,-8.8457 z m 58.21484,0 0,96.11914 39.86524,0 0,-12.71289 -25.49024,0 0,-30.15234 21.61524,0 0,-12.47071 -21.61524,0 0,-28.0625 25.11719,0 0,-12.7207 z m -336.677732,12.34961 19.708984,0 0,71.42969 -19.708984,0 z m 244.248052,9.82226 7.00585,43.36719 -14.06835,0 z"
       transform="translate(-243.13879,-116.80095)"
       id="text4165"
       inkscape:connector-curvature="0"
       sodipodi:nodetypes="ccccccccccsssccccccsssssccccccssssssssssssccccccccccccccccccccccccccccccccccccccccccccccccccccsssccccccccccccccccccccccc" />
    <path
       id="path4201"
       d="m 485.69922,260.28711 0,96.11914 29.29883,0 c 5.69125,0 10.20897,-1.59148 13.5664,-4.78516 3.35738,-3.23457 5.03711,-7.68371 5.03711,-13.33398 l 0,-59.75977 c 0,-5.65028 -1.67973,-10.08961 -5.03711,-13.32422 -3.35743,-3.27555 -7.87515,-4.91601 -13.5664,-4.91601 z m 59.45312,0 0,96.11914 39.85352,0 0,-12.71289 -25.48828,0 0,-30.15234 21.62304,0 0,-12.47071 -21.62304,0 0,-28.0625 25.12695,0 0,-12.7207 z m 46.85938,0 18.36328,96.24023 14.30859,0 18.42774,-96.24023 -14.375,0 -10.8086,65.90039 c -0.28643,3.60307 -0.41201,6.34895 -0.37109,8.23242 -0.16363,-3.60312 -0.27949,-6.34902 -0.36133,-8.23242 l -10.75195,-65.90039 z m 59.26758,0 0,96.11914 39.85351,0 0,-12.71289 -25.48828,0 0,-30.15234 21.62305,0 0,-12.47071 -21.62305,0 0,-28.0625 25.12695,0 0,-12.7207 z m 50.11328,0 0,96.11914 37.77344,0 0,-12.83203 -23.39844,0 0,-83.28711 z m 54.96289,0 c -5.69124,0 -8.5293,2.94972 -8.5293,8.8457 l 0,78.49219 c 0,5.85501 2.83806,8.78125 8.5293,8.78125 l 31.20312,0 c 5.81403,0 8.72657,-2.92624 8.72657,-8.78125 l 0,-78.49219 c 0,-5.89598 -2.91254,-8.8457 -8.72657,-8.8457 z m 51.89844,0 0,96.11914 14.375,0 0,-34.81836 23.27734,0 c 5.855,0 8.78125,-2.98896 8.78125,-8.9668 l 0,-43.48828 c 0,-5.89598 -2.92625,-8.8457 -8.78125,-8.8457 z m 57.24023,0 0,96.11914 14.375,0 0,-96.11914 z m 26.53906,0 0,96.11914 13.99414,0 0,-53.55078 c 0,-1.67871 -0.30589,-3.99344 -0.91992,-6.94141 l 23.03516,60.49219 12.5918,0 0,-96.11914 -14.00391,0 0,52.33398 c 0,1.67869 0.30589,3.9934 0.91992,6.94141 l -23.03516,-59.27539 z m 69.15235,0 c -5.81409,0 -8.72461,2.94972 -8.72461,8.8457 l 0,78.49219 c 0,5.85501 2.84786,8.78125 8.53906,8.78125 l 30.21875,0 c 5.85501,0 8.78125,-2.92624 8.78125,-8.78125 l 0,-42.67969 -25.11719,0 0,12.21875 10.68555,0 0,26.90235 -18.73242,0 0,-71.42969 18.73242,0 0,17.01367 14.43164,0 0,-20.51758 c 0,-5.89598 -2.92624,-8.8457 -8.78125,-8.8457 z m -461.11133,12.34961 10.68555,0 c 5.60932,0 8.41015,2.68318 8.41015,8.04687 l 0,55.21485 c 0,5.44561 -2.92619,8.16797 -8.78125,8.16797 l -10.31445,0 z m 262.11719,0 19.71875,0 0,71.42969 -19.71875,0 z m 60.4375,0 17.5625,0 0,36.60156 -17.5625,0 z"
       style="font-style:normal;font-variant:normal;font-weight:bold;font-stretch:condensed;font-size:26.4375px;line-height:125%;font-family:'Agency FB';-inkscape-font-specification:'Agency FB Bold Condensed';letter-spacing:0px;word-spacing:0px;fill:#1fcdff;fill-opacity:1;stroke:none;stroke-width:1px;stroke-linecap:butt;stroke-linejoin:miter;stroke-opacity:1"
       transform="translate(-243.13879,-116.80095)"
       inkscape:connector-curvature="0"
       sodipodi:nodetypes="ccscsscsccccccccccccccccccccccccccccccccccccccccccccsssssssssccccsssscccccccccscccccscccssssssccccccccccssscsssscccccccccccc" />
  </g>
</svg>
